<svg xmlns="http://www.w3.org/2000/svg" viewBox="0 0 512 512" role="img" aria-label="Kalkulačka trov">
  <rect width="512" height="512" rx="96" fill="#7c5326"/>
  <!-- váhy spravodlivosti -->
  <g fill="none" stroke="#faf7ef" stroke-width="14" stroke-linecap="round" stroke-linejoin="round">
    <line x1="256" y1="96" x2="256" y2="392"/>
    <line x1="150" y1="160" x2="362" y2="160"/>
    <circle cx="256" cy="120" r="16" fill="#faf7ef" stroke="none"/>
    <!-- ľavá miska -->
    <line x1="150" y1="160" x2="112" y2="250"/>
    <line x1="150" y1="160" x2="188" y2="250"/>
    <path d="M104 250 a52 30 0 0 0 92 0 Z" fill="#e8c98a" stroke="#faf7ef"/>
    <!-- pravá miska -->
    <line x1="362" y1="160" x2="324" y2="250"/>
    <line x1="362" y1="160" x2="400" y2="250"/>
    <path d="M316 250 a52 30 0 0 0 92 0 Z" fill="#e8c98a" stroke="#faf7ef"/>
    <!-- podstavec -->
    <line x1="208" y1="392" x2="304" y2="392"/>
    <line x1="230" y1="392" x2="220" y2="360"/>
    <line x1="282" y1="392" x2="292" y2="360"/>
  </g>
  <text x="256" y="468" font-family="Georgia, serif" font-size="64" font-weight="700" fill="#faf7ef" text-anchor="middle">€</text>
</svg>
